<?xml version="1.0" encoding="UTF-8"?>
<svg id="Ebene_1" xmlns="http://www.w3.org/2000/svg" version="1.1" viewBox="0 0 180 180">
  <!-- Generator: Adobe Illustrator 29.5.1, SVG Export Plug-In . SVG Version: 2.1.0 Build 141)  -->
  <defs>
    <style>
      .st0 {
        fill: #fff;
      }
    </style>
  </defs>
  <path id="path25" class="st0" d="M80.11,14.4C45.1,18.83,17.36,46.57,12.93,81.58c-.68,5.4-.63,14.27.1,19.67.16,1.14.34,2.28.55,3.41,1.17,6.4,8.05,9.9,14.27,7.96,38.58-12.06,69.7-24.96,95.5-37.25,2.23-1.06,4.62-3.85,5.3-6.22.13-.47,1.46-5.09,2.72-10.39,1.68-7.04,2.91-13.6,3.84-19.67.83-5.38-2.18-12.48-6.92-15.17-8.79-5-18.48-8.23-28.51-9.51-5.4-.69-14.27-.69-19.67,0h0ZM157.76,83.64c-.99.51-1.99,1.03-3,1.54-4.85,2.48-10.25,8.62-12.24,13.69-7.55,19.2-18.35,39.96-33.85,61.17-3.21,4.4-1.56,7.2,3.65,5.63,30.59-9.17,52.64-36.37,55.06-68.48.24-3.18.24-8.36,0-11.53-.31-3.66-4.75-4.52-9.59-2.02h-.03ZM103.96,108.95c-19.37,8.18-41.27,16.42-66.05,24.29-5.93,1.88-7.86,7.51-3.55,11.98,8.35,8.65,18.61,15.25,29.95,19.26,5.13,1.82,12.43-.6,15.9-4.8,12.53-15.14,22.24-30.05,29.81-44.34,3.31-6.26.46-9.14-6.07-6.39h0Z"/>
</svg>