<?xml version="1.0" encoding="UTF-8"?>
<svg id="Ebene_1" xmlns="http://www.w3.org/2000/svg" version="1.1" viewBox="0 0 180 180">
  <!-- Generator: Adobe Illustrator 29.5.1, SVG Export Plug-In . SVG Version: 2.1.0 Build 141)  -->
  <defs>
    <style>
      .st0 {
        fill-opacity: .95;
      }
    </style>
  </defs>
  <path id="path25" class="st0" d="M80.38,16.39C46.19,20.71,19.1,47.8,14.78,81.98c-.66,5.27-.62,13.94.1,19.2.15,1.12.33,2.23.54,3.33,1.14,6.25,7.86,9.67,13.93,7.77,37.67-11.77,68.05-24.37,93.24-36.36,2.18-1.04,4.51-3.76,5.18-6.07.13-.46,1.42-4.97,2.66-10.15,1.64-6.87,2.84-13.28,3.75-19.2.81-5.25-2.13-12.19-6.75-14.81-8.58-4.88-18.04-8.03-27.83-9.29-5.27-.67-13.94-.68-19.21,0h0ZM156.18,83.99c-.97.5-1.94,1-2.93,1.5-4.73,2.42-10,8.42-11.95,13.37-7.37,18.75-17.92,39.01-33.05,59.72-3.14,4.29-1.53,7.03,3.56,5.5,29.86-8.96,51.4-35.51,53.75-66.86.24-3.1.24-8.16,0-11.26-.3-3.57-4.63-4.41-9.36-1.97h-.03ZM103.66,108.69c-18.91,7.98-40.29,16.03-64.49,23.72-5.79,1.84-7.68,7.33-3.46,11.69,8.15,8.44,18.17,14.88,29.25,18.8,5.01,1.77,12.13-.59,15.52-4.68,12.24-14.78,21.72-29.34,29.11-43.29,3.24-6.11.45-8.93-5.92-6.24h0Z"/>
</svg>